<svg width="144" height="144" viewBox="0 0 144 144" xmlns="http://www.w3.org/2000/svg">
  <!-- Background circle -->
  <circle cx="72" cy="72" r="70" fill="#4A90E2" stroke="#2E5C8A" stroke-width="2"/>
  
  <!-- Globe grid lines -->
  <ellipse cx="72" cy="72" rx="50" ry="20" fill="none" stroke="#ffffff" stroke-width="2" opacity="0.8"/>
  <ellipse cx="72" cy="72" rx="20" ry="50" fill="none" stroke="#ffffff" stroke-width="2" opacity="0.8"/>
  <line x1="22" y1="72" x2="122" y2="72" stroke="#ffffff" stroke-width="1.5" opacity="0.6"/>
  <line x1="72" y1="22" x2="72" y2="122" stroke="#ffffff" stroke-width="1.5" opacity="0.6"/>
  
  <!-- Simple logistics icons -->
  <!-- Airplane -->
  <g transform="translate(100, 40) scale(0.3)">
    <path d="M0 0 L40 10 L30 20 L10 15 L0 30 L-5 25 L-15 30 L-10 20 L-30 15 L-20 5 Z" fill="#E67E22"/>
  </g>
  
  <!-- Ship -->
  <g transform="translate(30, 100) scale(0.3)">
    <path d="M0 20 L60 20 L50 40 L10 40 Z" fill="#34495E"/>
    <rect x="15" y="10" width="30" height="15" fill="#E74C3C"/>
  </g>
  
  <!-- Truck -->
  <g transform="translate(100, 100) scale(0.3)">
    <rect x="0" y="15" width="40" height="20" fill="#34495E"/>
    <rect x="40" y="10" width="25" height="25" fill="#E74C3C"/>
    <circle cx="15" cy="40" r="6" fill="#2C3E50"/>
    <circle cx="50" cy="40" r="6" fill="#2C3E50"/>
  </g>
</svg>
