<svg width="32" height="32" viewBox="0 0 32 32" xmlns="http://www.w3.org/2000/svg">
  <!-- Background circle -->
  <circle cx="16" cy="16" r="15" fill="#4A90E2" stroke="#2E5C8A" stroke-width="1"/>
  
  <!-- Globe grid -->
  <path d="M3 16 Q16 6 29 16 Q16 26 3 16" fill="none" stroke="#ffffff" stroke-width="1" opacity="0.7"/>
  <path d="M16 1 Q26 16 16 31 Q6 16 16 1" fill="none" stroke="#ffffff" stroke-width="1" opacity="0.7"/>
  
  <!-- Airplane -->
  <g transform="translate(22, 8) rotate(45)">
    <path d="M0 0 L4 1 L3 2 L1 1.5 L0 3 L-0.5 2.5 L-1.5 3 L-1 2 L-3 1.5 L-2 0.5 Z" fill="#E67E22"/>
  </g>
  
  <!-- Ship -->
  <g transform="translate(6, 22)">
    <path d="M0 2 L6 2 L5 4 L1 4 Z" fill="#34495E"/>
    <rect x="1.5" y="1" width="3" height="1.5" fill="#E74C3C"/>
  </g>
  
  <!-- N letter overlay -->
  <text x="16" y="20" font-family="Arial, sans-serif" font-size="12" font-weight="bold" fill="#ffffff" text-anchor="middle">N</text>
</svg>
